<?xml version="1.0" encoding="UTF-8" standalone="no"?>
<!-- Generator: Adobe Illustrator 16.0.0, SVG Export Plug-In . SVG Version: 6.00 Build 0)  -->

<svg
   xmlns:dc="http://purl.org/dc/elements/1.1/"
   xmlns:cc="http://creativecommons.org/ns#"
   xmlns:rdf="http://www.w3.org/1999/02/22-rdf-syntax-ns#"
   xmlns:svg="http://www.w3.org/2000/svg"
   xmlns="http://www.w3.org/2000/svg"
   xmlns:sodipodi="http://sodipodi.sourceforge.net/DTD/sodipodi-0.dtd"
   xmlns:inkscape="http://www.inkscape.org/namespaces/inkscape"
   version="1.1"
   id="Layer_1"
   x="0px"
   y="0px"
   width="612px"
   height="792px"
   viewBox="0 0 612 792"
   enable-background="new 0 0 612 792"
   xml:space="preserve"
   sodipodi:docname="snest2.svg"
   inkscape:version="0.92.3 (2405546, 2018-03-11)"><metadata
   id="metadata19"><rdf:RDF><cc:Work
       rdf:about=""><dc:format>image/svg+xml</dc:format><dc:type
         rdf:resource="http://purl.org/dc/dcmitype/StillImage" /><dc:title /></cc:Work></rdf:RDF></metadata><defs
   id="defs17" /><sodipodi:namedview
   pagecolor="#ffffff"
   bordercolor="#666666"
   borderopacity="1"
   objecttolerance="10"
   gridtolerance="10"
   guidetolerance="10"
   inkscape:pageopacity="0"
   inkscape:pageshadow="2"
   inkscape:window-width="1920"
   inkscape:window-height="1015"
   id="namedview15"
   showgrid="false"
   inkscape:zoom="2.3838384"
   inkscape:cx="258.40275"
   inkscape:cy="397.81572"
   inkscape:window-x="0"
   inkscape:window-y="0"
   inkscape:window-maximized="1"
   inkscape:current-layer="Layer_1" />
<g
   id="g12"
   style="fill:#000000">
	<path
   style="fill:#000000;stroke:#ff3f00;stroke-width:0;stroke-linecap:square;stroke-miterlimit:10"
   d="m 238,353.5 h 3.75 v 13.125 H 238 v 11.958 h 93.667 v -11.958 h -3.75 V 353.5 h 3.75 V 316 H 238 Z"
   id="polygon2" />
	<path
   style="fill:#000000;stroke:#ff3f00;stroke-width:0;stroke-linecap:square;stroke-miterlimit:10"
   d="m 263.458,473.292 h 42.751 v 2.916 h 9.25 v -2.916 h 16.208 V 447.25 H 238 v 26.042 h 16.208 v 2.916 h 9.25 z"
   id="polygon4" />
	<path
   style="fill:#000000;stroke:#ff3f00;stroke-width:0;stroke-linecap:square;stroke-miterlimit:10"
   d="m 370.917,360.5 h 2.625 v 4.75 h -2.625 v 19 h -4.792 v 9.292 h 4.792 v 4.541 h 2.625 v 4.792 h -2.625 v 6.875 H 338.625 V 316 h 32.292 v 6.875 h 2.625 v 4.792 h -2.625 v 4.541 h -4.792 v 9.292 h 4.792 z"
   id="polygon6" />
	<path
   style="fill:#000000;stroke:#ff3f00;stroke-width:0;stroke-linecap:square;stroke-miterlimit:10"
   d="m 296.583,405.208 -5.875,-5.875 14.959,-14.958 h 26 v 55.917 l -20.625,-20.625 -3.417,3.375 -6,-6 h -5.333 v -5.334 l -3.084,-3.083 z"
   id="polygon8" />
	<path
   style="fill:#000000;stroke:#ff3f00;stroke-width:0;stroke-linecap:square;stroke-miterlimit:10"
   d="m 273.083,405.208 5.834,-5.875 L 264,384.375 h -26 v 55.917 l 20.625,-20.625 3.417,3.375 6,-6 h 5.333 v -5.334 l 3.083,-3.083 z"
   id="polygon10" />
</g>
</svg>