<?xml version="1.0" encoding="UTF-8" standalone="no"?>
<!-- Generator: Adobe Illustrator 16.0.0, SVG Export Plug-In . SVG Version: 6.00 Build 0)  -->

<svg
   xmlns:dc="http://purl.org/dc/elements/1.1/"
   xmlns:cc="http://creativecommons.org/ns#"
   xmlns:rdf="http://www.w3.org/1999/02/22-rdf-syntax-ns#"
   xmlns:svg="http://www.w3.org/2000/svg"
   xmlns="http://www.w3.org/2000/svg"
   xmlns:sodipodi="http://sodipodi.sourceforge.net/DTD/sodipodi-0.dtd"
   xmlns:inkscape="http://www.inkscape.org/namespaces/inkscape"
   version="1.1"
   id="Layer_1"
   x="0px"
   y="0px"
   width="612px"
   height="792px"
   viewBox="0 0 612 792"
   enable-background="new 0 0 612 792"
   xml:space="preserve"
   sodipodi:docname="snest.svg"
   inkscape:version="0.92.3 (2405546, 2018-03-11)"><metadata
   id="metadata19"><rdf:RDF><cc:Work
       rdf:about=""><dc:format>image/svg+xml</dc:format><dc:type
         rdf:resource="http://purl.org/dc/dcmitype/StillImage" /><dc:title></dc:title></cc:Work></rdf:RDF></metadata><defs
   id="defs17" /><sodipodi:namedview
   pagecolor="#ffffff"
   bordercolor="#666666"
   borderopacity="1"
   objecttolerance="10"
   gridtolerance="10"
   guidetolerance="10"
   inkscape:pageopacity="0"
   inkscape:pageshadow="2"
   inkscape:window-width="1920"
   inkscape:window-height="1015"
   id="namedview15"
   showgrid="false"
   inkscape:zoom="2.3838384"
   inkscape:cx="258.40275"
   inkscape:cy="397.81572"
   inkscape:window-x="0"
   inkscape:window-y="0"
   inkscape:window-maximized="1"
   inkscape:current-layer="Layer_1" />
<g
   id="g12"
   style="fill:#000000">
	<polygon
   fill="none"
   stroke="#FF3F00"
   stroke-width="0"
   stroke-linecap="square"
   stroke-miterlimit="10"
   points="238,353.5    241.75,353.5 241.75,366.625 238,366.625 238,378.583 331.667,378.583 331.667,366.625 327.917,366.625 327.917,353.5    331.667,353.5 331.667,316 238,316 238,353.5  "
   id="polygon2"
   style="fill:#000000" />
	<polygon
   fill="none"
   stroke="#FF3F00"
   stroke-width="0"
   stroke-linecap="square"
   stroke-miterlimit="10"
   points="263.458,473.292    306.209,473.292 306.209,476.208 315.459,476.208 315.459,473.292 331.667,473.292 331.667,447.25 238,447.25 238,473.292    254.208,473.292 254.208,476.208 263.458,476.208 263.458,473.292  "
   id="polygon4"
   style="fill:#000000" />
	<polygon
   fill="none"
   stroke="#FF3F00"
   stroke-width="0"
   stroke-linecap="square"
   stroke-miterlimit="10"
   points="370.917,360.5    373.542,360.5 373.542,365.25 370.917,365.25 370.917,384.25 366.125,384.25 366.125,393.542 370.917,393.542 370.917,398.083    373.542,398.083 373.542,402.875 370.917,402.875 370.917,409.75 338.625,409.75 338.625,316 370.917,316 370.917,322.875    373.542,322.875 373.542,327.667 370.917,327.667 370.917,332.208 366.125,332.208 366.125,341.5 370.917,341.5 370.917,360.5  "
   id="polygon6"
   style="fill:#000000" />
	<polygon
   fill="none"
   stroke="#FF3F00"
   stroke-width="0"
   stroke-linecap="square"
   stroke-miterlimit="10"
   points="296.583,405.208    290.708,399.333 305.667,384.375 331.667,384.375 331.667,440.292 311.042,419.667 307.625,423.042 301.625,417.042    296.292,417.042 296.292,411.708 293.208,408.625 296.583,405.208  "
   id="polygon8"
   style="fill:#000000" />
	<polygon
   fill="none"
   stroke="#FF3F00"
   stroke-width="0"
   stroke-linecap="square"
   stroke-miterlimit="10"
   points="273.083,405.208    278.917,399.333 264,384.375 238,384.375 238,440.292 258.625,419.667 262.042,423.042 268.042,417.042 273.375,417.042    273.375,411.708 276.458,408.625 273.083,405.208  "
   id="polygon10"
   style="fill:#000000" />
</g>
</svg>